<?xml version="1.0" standalone="no"?>
<!DOCTYPE svg PUBLIC "-//W3C//DTD SVG 20010904//EN"
 "http://www.w3.org/TR/2001/REC-SVG-20010904/DTD/svg10.dtd">
<svg version="1.0" xmlns="http://www.w3.org/2000/svg"
 width="491.000000pt" height="491.000000pt" viewBox="0 0 491.000000 491.000000"
 preserveAspectRatio="xMidYMid meet">
<metadata>
Created by potrace 1.14, written by Peter Selinger 2001-2017
</metadata>
<g transform="translate(0.000000,491.000000) scale(0.100000,-0.100000)"
fill="#000000" stroke="none">
<path d="M2307 4884 c-1 -1 -40 -4 -87 -7 -146 -9 -440 -83 -585 -147 -22 -10
-69 -30 -105 -45 -204 -86 -395 -202 -557 -337 -75 -62 -247 -236 -307 -310
-21 -26 -43 -45 -47 -42 -5 3 -7 -1 -4 -8 3 -7 -5 -24 -17 -38 -13 -14 -19
-19 -13 -10 6 10 2 8 -13 -4 -23 -20 -31 -42 -9 -30 7 4 9 3 4 -2 -5 -5 -13
-9 -18 -9 -35 0 -243 -381 -311 -570 -112 -307 -153 -546 -152 -890 1 -387 70
-708 220 -1016 56 -115 157 -294 173 -309 3 -3 21 -27 40 -55 135 -195 388
-446 656 -651 114 -87 312 -187 502 -254 281 -99 548 -141 858 -134 99 3 194
6 210 8 17 3 50 7 75 10 289 38 625 159 900 324 184 111 426 319 556 477 27
33 55 66 62 73 35 38 174 261 228 368 94 185 186 444 210 593 2 14 7 37 9 51
3 14 7 43 11 65 3 22 7 51 10 65 8 43 15 343 8 373 -7 34 -13 30 -24 -15 -5
-18 -18 -69 -29 -113 -60 -242 -217 -634 -338 -842 -29 -51 -53 -101 -53 -111
0 -34 -127 -221 -199 -293 -9 -8 -32 -33 -51 -55 -37 -40 -214 -203 -285 -262
l-40 -33 43 26 c24 15 46 25 48 22 7 -6 -87 -90 -166 -148 -74 -55 -192 -129
-260 -164 -39 -20 -250 -96 -250 -90 0 2 -19 -3 -42 -11 -50 -17 -227 -50
-329 -60 -77 -8 -320 -8 -354 0 -11 2 -31 5 -44 5 -13 1 -21 4 -18 7 4 4 76 8
162 10 181 3 287 13 350 34 20 6 -11 7 -100 3 -213 -10 -431 -5 -518 13 -12 2
-65 6 -117 9 -108 5 -164 12 -200 25 -106 38 -226 88 -294 122 -76 38 -206
116 -206 123 0 2 52 -21 115 -51 188 -89 439 -166 622 -189 26 -4 75 -10 108
-15 63 -9 475 -6 535 4 19 3 51 8 70 11 79 13 92 16 148 41 31 15 98 39 147
54 174 54 304 115 444 209 125 84 283 215 307 252 9 15 -7 4 -180 -125 -226
-169 -472 -290 -651 -320 -16 -2 -55 -9 -85 -15 -69 -13 -101 -18 -170 -26
-30 -4 -68 -8 -85 -10 -81 -11 -393 -4 -465 10 -14 2 -47 7 -75 11 -27 3 -59
8 -70 10 -11 2 -35 7 -53 10 -18 3 -34 10 -37 14 -3 5 9 5 27 0 142 -36 581
-46 722 -15 11 2 39 7 61 10 136 19 351 89 520 169 198 94 452 275 500 356 11
19 4 13 -127 -86 -224 -171 -533 -336 -733 -391 -41 -11 -155 -34 -184 -37
-20 -2 -65 -8 -101 -12 -140 -17 -408 -8 -560 20 -453 84 -811 268 -1123 576
-72 72 -116 122 -113 131 3 8 -8 30 -25 49 l-31 35 27 -38 c37 -52 25 -58 -15
-7 -102 129 -274 432 -282 500 -2 14 -7 31 -11 37 -5 7 -6 13 -2 13 3 0 -5 21
-19 48 -23 47 -55 168 -75 292 -26 165 -31 201 -37 285 -6 101 -14 124 -15 49
0 -32 -3 -42 -8 -30 -7 19 -7 32 4 171 9 107 19 156 67 310 69 221 162 431
217 490 16 16 57 71 92 120 71 101 72 102 150 194 238 281 585 519 814 556 32
5 22 -2 -49 -34 -108 -49 -133 -69 -51 -41 64 22 353 104 448 126 105 25 211
29 522 20 252 -8 607 -153 940 -383 186 -129 316 -261 438 -444 59 -89 177
-316 177 -341 0 -8 4 -18 9 -23 21 -23 103 -323 115 -425 3 -25 8 -56 10 -70
3 -14 7 -43 11 -65 5 -36 17 -90 32 -138 5 -19 15 -16 19 6 13 79 16 118 18
212 12 480 -194 958 -580 1350 -119 120 -206 195 -409 346 -233 175 -222 166
-208 180 28 28 289 -46 474 -134 49 -24 89 -40 89 -36 0 4 -38 36 -85 70 -47
35 -81 65 -75 67 5 2 44 -15 86 -37 106 -57 105 -51 -1 14 -267 164 -643 301
-945 345 -117 17 -212 23 -378 24 -90 0 -164 0 -165 0z m290 -278 c3 -3 -14
-7 -38 -7 -146 -4 -275 -16 -329 -29 -24 -6 -4 -7 63 -4 90 4 238 -9 357 -32
14 -2 36 -6 50 -9 72 -13 180 -49 168 -56 -13 -8 -221 -5 -235 4 -22 14 -335
24 -388 13 -138 -29 -370 -82 -445 -102 -158 -43 -353 -128 -510 -222 -126
-76 -129 -77 -92 -45 31 28 42 53 23 53 -23 0 -160 -109 -257 -205 -152 -151
-247 -286 -351 -501 -63 -130 -129 -294 -119 -294 5 0 80 119 111 175 52 95
105 184 114 189 5 3 19 25 31 48 24 46 105 154 153 203 37 38 29 23 -49 -90
-77 -112 -140 -225 -188 -333 -38 -88 -108 -284 -102 -289 1 -2 24 45 51 104
95 214 190 372 284 473 l52 55 -36 -55 c-19 -30 -39 -60 -45 -67 -5 -7 -10
-15 -10 -17 0 -3 -21 -38 -47 -78 -99 -155 -192 -372 -281 -658 l-11 -35 3 43
c4 56 -12 41 -19 -18 -3 -25 -8 -56 -11 -70 -4 -14 -7 -122 -9 -240 -2 -196 3
-271 29 -417 3 -18 8 -46 11 -61 23 -138 99 -360 177 -521 55 -111 227 -403
259 -437 10 -11 19 -23 19 -27 0 -4 -19 15 -42 41 -24 26 -46 49 -49 52 -3 3
-34 43 -67 88 -63 85 -78 93 -42 22 31 -61 17 -48 -36 33 -83 125 -163 289
-234 480 -22 60 -39 70 -74 44 -16 -12 -16 -17 8 -84 25 -69 31 -91 21 -81
-24 23 -102 300 -120 428 -3 19 -7 44 -10 55 -2 11 -6 61 -10 110 -3 50 -9
119 -12 155 -13 125 -9 265 13 385 26 149 89 357 150 497 30 70 38 98 28 98
-20 0 -19 2 31 101 131 260 412 562 715 771 102 70 306 189 313 182 2 -2 4 3
4 11 0 13 -3 13 -16 2 -24 -21 -51 -28 -51 -14 0 7 29 25 63 41 34 17 79 38
100 48 20 10 37 16 37 13 0 -2 -27 -18 -60 -35 -67 -34 -81 -49 -22 -24 100
43 195 77 279 100 93 25 112 29 218 40 33 4 62 8 64 10 7 7 411 -3 418 -10z
m-1534 -3805 c-2 -3 -20 12 -41 34 l-37 39 41 -35 c22 -19 39 -36 37 -38z
m193 -117 l49 -45 -77 51 c-43 28 -78 52 -78 55 0 14 64 -23 106 -61z m387
-185 c45 -22 132 -61 192 -86 140 -58 165 -71 162 -85 -2 -12 31 -23 96 -32
23 -4 53 -8 67 -11 45 -8 124 -16 205 -21 44 -2 94 -6 112 -9 17 -3 91 -5 163
-6 136 -2 154 -13 40 -25 -36 -4 -76 -8 -90 -10 -37 -5 -309 -4 -355 1 -74 8
-147 17 -169 21 -28 5 -208 44 -221 47 -5 2 -37 11 -70 21 -33 9 -69 21 -80
26 -11 5 -47 18 -80 30 -92 33 -229 105 -337 176 -53 36 -100 69 -103 73 -10
17 160 -41 215 -73 30 -17 93 -51 140 -75 82 -41 84 -41 50 -12 -19 17 -55 45
-79 61 -51 35 -43 39 18 9 76 -37 64 -15 -29 49 -49 35 -90 65 -90 67 0 2 36
-18 80 -46 45 -27 118 -68 163 -90z"/>
<path d="M436 3089 c-8 -42 0 -50 9 -9 4 17 5 34 2 36 -2 3 -7 -10 -11 -27z"/>
<path d="M522 2910 c0 -14 2 -19 5 -12 2 6 2 18 0 25 -3 6 -5 1 -5 -13z"/>
<path d="M465 2209 c3 -59 12 -115 24 -149 29 -81 25 -15 -14 209 -9 54 -14
27 -10 -60z"/>
<path d="M1680 386 c14 -7 36 -16 50 -20 14 -3 7 3 -15 13 -45 22 -73 27 -35
7z"/>
<path d="M803 3333 c-3 -10 -7 -21 -9 -24 -2 -3 2 -6 9 -6 7 0 12 11 12 24 0
28 -3 29 -12 6z"/>
<path d="M780 3265 c-5 -13 -22 -55 -38 -92 -29 -67 -46 -123 -39 -123 3 0 15
28 27 63 12 34 36 88 51 120 16 31 25 57 19 57 -6 0 -15 -11 -20 -25z"/>
<path d="M4452 1595 c-23 -56 -248 -395 -272 -410 -6 -4 -10 -11 -10 -16 0
-14 126 141 177 216 57 86 125 214 120 228 -2 6 -9 -2 -15 -18z"/>
</g>
</svg>
