<svg style="width: 100%; height: 100%;" xmlns="http://www.w3.org/2000/svg" viewBox="0 0 1920 1080">
    <defs>
        <style>
            .cls-1 {
                fill: #cbdcf1;
            }

            .cls-2,
            .cls-9 {
                fill: none;
                stroke-miterlimit: 10;
            }

            .cls-2 {
                stroke: #2c447c;
                stroke-width: 7px;
            }

            .cls-3 {
                fill: #fff;
            }

            .cls-4 {
                fill: #2d447a;
            }

            .cls-5 {
                fill: #5cb9dc;
            }

            .cls-11,
            .cls-6,
            .cls-7 {
                fill: #d65071;
            }

            .cls-7,
            .cls-8 {
                fill-rule: evenodd;
            }

            .cls-8 {
                fill: #0eaad0;
            }

            .cls-9 {
                stroke: #5cb9dc;
                stroke-width: 2.76px;
            }

            .cls-10 {
                font-size: 214.44px;
            }

            .cls-10,
            .cls-14 {
                fill: #2c447c;
                font-family: MyriadPro-Regular, Myriad Pro;
            }

            .cls-11 {
                font-size: 65.55px;
                font-family: Roboto-Regular, Roboto;
            }

            .cls-12 {
                letter-spacing: -0.01em;
            }

            .cls-13 {
                letter-spacing: -0.02em;
            }

            .cls-14 {
                font-size: 21px;
            }

            .cls-15 {
                letter-spacing: -0.01em;
            }

            .cls-16 {
                letter-spacing: 0em;
            }

            .cls-17 {
                letter-spacing: -0.01em;
            }

            .cls-18 {
                letter-spacing: -0.01em;
            }

            .cls-19 {
                letter-spacing: 0em;
            }

            .cls-20 {
                letter-spacing: -0.01em;
            }

            .cls-21 {
                letter-spacing: 0em;
            }

            .cls-22 {
                letter-spacing: 0em;
            }

            .cls-23 {
                letter-spacing: -0.01em;
            }

            .cls-24 {
                letter-spacing: -0.07em;
            }

            .cls-25,
            .cls-27 {
                letter-spacing: 0em;
            }

            .cls-26 {
                letter-spacing: -0.01em;
            }

            .cls-27 {
                fill: #000;
            }
        </style>
    </defs>
    <title>404</title>
    <g id="Preview">
        <path class="cls-1" d="M561.19-8.15S502.52,163.68,922.51,252.37s6.18,177.37,281,266.06,179.11,194-55.59,316-3.09,252.2-3.09,252.2H1920V.16S561.19.16,561.19-8.15Z" />
        <rect class="cls-2" x="52.78" y="44.71" width="1814.44" height="990.58" rx="38.23" />
        <g>
            <g id="Bottom_plug" data-name="Bottom plug">
                <g>
                    <path class="cls-3" d="M921.27,907.63a238.35,238.35,0,0,1,20.83-28c12.88-14.84,24.77-16.42,32.48-15.14a26.53,26.53,0,0,1,19.89,15.83c4.34,10.72,8.34,17.55,11.89,20.29,1.89,1.47,3.51,1.67,8.09,1.63,6.87-.07,18-11.77,28.48-44.39a373.56,373.56,0,0,0,11.92-49.91l19.69,3.05A386.72,386.72,0,0,1,1062,863.73c-12.58,39.11-28.06,58.21-47.31,58.4-16.34.16-26.81-5.11-38.65-34.37a6.57,6.57,0,0,0-4.69-3.64c-3.75-.63-8.91,2.49-14.16,8.54C937,915.83,870.8,1055.38,861,1086.58l-19-6C849,1058.34,908.9,927,921.27,907.63Z" />
                    <path class="cls-4" d="M838.21,1082.54l.9-2.85c7-22.23,67.1-154,79.64-173.67a242.71,242.71,0,0,1,21.09-28.38c13.79-15.88,26.77-17.54,35.23-16.13a29.56,29.56,0,0,1,22.17,17.66c5.16,12.74,8.8,17.39,10.94,19.05,1,.79,1.74,1,6.24,1s14.92-9,25.67-42.32a370.89,370.89,0,0,0,11.81-49.45l.46-3,25.59,4-.46,2.95a387.09,387.09,0,0,1-12.68,53.22c-13,40.49-29.43,60.27-50.13,60.48-17.3.17-29-5.55-41.45-36.24a3.71,3.71,0,0,0-2.42-1.82c-1.95-.32-6.11,1.46-11.4,7.56-19.85,22.87-85.88,162-95.59,192.86l-.9,2.85Zm85.58-173.3c-11.73,18.4-71.24,148.63-78.06,169.4l13.3,4.2c10.05-30.56,76.11-169.37,95.86-192.14,6-7,12-10.34,16.91-9.53a9.5,9.5,0,0,1,7,5.47c11.26,27.83,20.53,32.66,35.85,32.5,17.8-.17,32.36-18.6,44.5-56.33a385.31,385.31,0,0,0,12-49.36l-13.79-2.13a375.25,375.25,0,0,1-11.54,47.42c-9.49,29.42-20.89,46.35-31.29,46.46-4.83,0-7.24-.15-10-2.25-4-3.11-8.22-10.16-12.83-21.54a23.49,23.49,0,0,0-17.61-14c-7-1.16-17.76.35-29.73,14.15A235.83,235.83,0,0,0,923.79,909.24Z" />
                </g>
                <g>
                    <path class="cls-5" d="M1175.07,768.74l17.2-49.92-171.45-59.06-17.19,49.93a90.67,90.67,0,0,0,56.19,115.25h0A90.68,90.68,0,0,0,1175.07,768.74Z" />
                    <path class="cls-4" d="M995.69,739.14a93.13,93.13,0,0,1,5.11-30.42L1019,656l177.1,61-18.18,52.76a93.65,93.65,0,0,1-182.2-30.58Zm27-75.58-16.23,47.1a87.68,87.68,0,1,0,165.79,57.11l16.23-47.1Z" />
                </g>
                <g>
                    <path class="cls-6" d="M1097.54,718.33c-53.3-18.36-88.65-56.08-78.95-84.24,3.29-9.53,9.78-33.64,21-38.3,22-9.11,57.79,8.41,93.05,20.55,33.32,11.48,72.22,15.74,84.9,35.28,7.6,11.73-2.31,38.4-6,49C1201.92,728.74,1150.85,736.69,1097.54,718.33Z" />
                    <path class="cls-4" d="M1014,643.87a32.8,32.8,0,0,1,1.78-10.75c.39-1.14.83-2.5,1.32-4,3.82-11.77,10.22-31.47,21.38-36.09,18.8-7.8,46,2.34,74.76,13.07,6.69,2.49,13.61,5.07,20.41,7.42,9.25,3.18,19,5.83,28.46,8.39,24.81,6.72,48.23,13.07,58,28.09,8,12.34-.79,37.64-5,49.8l-.6,1.75c-5.07,14.72-20.36,24.77-43.06,28.3-22,3.43-48.59.34-74.82-8.69h0c-26.23-9-49.07-23-64.31-39.23C1020.24,669.11,1014,655.94,1014,643.87Zm203.4,19.56c0-4-.66-7.6-2.33-10.18-8.5-13.1-30.85-19.16-54.52-25.57-9.54-2.59-19.4-5.26-28.84-8.51-6.88-2.37-13.83-5-20.56-7.47-27.64-10.31-53.75-20.05-70.38-13.15-8.61,3.57-14.71,22.34-18,32.42-.5,1.54-.95,2.93-1.35,4.09-4.32,12.53,1.08,27.72,15.2,42.78,14.59,15.56,36.57,28.94,61.9,37.66s50.88,11.73,72,8.45c20.4-3.18,34-11.82,38.33-24.34l.61-1.77C1212.08,690.17,1217.39,674.88,1217.39,663.43Z" />
                </g>
                <g>
                    <ellipse class="cls-3" cx="1124.27" cy="640.74" rx="53.93" ry="102.08" transform="translate(152.32 1495.05) rotate(-70.99)" />
                    <path class="cls-4" d="M1023.15,617.28a32.86,32.86,0,0,1,1.78-10.76c5.07-14.72,20.36-24.77,43-28.3,22-3.42,48.59-.33,74.82,8.7s49.08,23,64.31,39.23c15.71,16.75,21.57,34.09,16.5,48.81s-20.36,24.77-43.06,28.3c-22,3.42-48.59.33-74.82-8.7s-49.07-23-64.31-39.23C1029.4,642.51,1023.15,629.35,1023.15,617.28ZM1219.4,664.2c0-10.53-5.7-22.29-16.65-34-14.58-15.56-36.56-28.93-61.89-37.66s-50.89-11.72-72-8.44c-20.4,3.17-34,11.82-38.32,24.34s1.08,27.71,15.2,42.78c14.59,15.56,36.57,28.93,61.9,37.66h0c25.32,8.72,50.88,11.72,72,8.44,20.4-3.17,34-11.82,38.33-24.34A27.12,27.12,0,0,0,1219.4,664.2Z" />
                </g>
                <ellipse class="cls-4" cx="1171.65" cy="653.23" rx="10.96" ry="17.44" transform="translate(172.46 1548.27) rotate(-70.99)" />
                <ellipse class="cls-4" cx="1079.34" cy="621.44" rx="10.96" ry="17.44" transform="translate(140.27 1439.55) rotate(-70.99)" />
            </g>
            <g id="Top_plug" data-name="Top plug">
                <g>
                    <path class="cls-3" d="M1194.5,424.68l-32.23,92.43a14.69,14.69,0,0,1-18.71,9h0a14.69,14.69,0,0,1-9-18.71L1166.75,415Z" />
                    <path class="cls-4" d="M1130.71,512.26a17.61,17.61,0,0,1,1-5.81l33.21-95.25,33.4,11.64-33.22,95.26a17.68,17.68,0,0,1-34.38-5.84Zm37.88-93.45-31.25,89.61a11.71,11.71,0,1,0,22.11,7.71l31.24-89.61Z" />
                </g>
                <g>
                    <path class="cls-3" d="M1286.69,456.83l-32.22,92.43a14.7,14.7,0,0,1-18.72,9h0a14.7,14.7,0,0,1-9-18.72l32.22-92.43Z" />
                    <path class="cls-4" d="M1222.91,544.4a17.58,17.58,0,0,1,1-5.8l33.21-95.25L1290.5,455l-33.21,95.25a17.7,17.7,0,0,1-22.52,10.88A17.71,17.71,0,0,1,1222.91,544.4ZM1260.78,451l-31.24,89.6a11.71,11.71,0,0,0,22.11,7.71l31.24-89.6Z" />
                </g>
                <g>
                    <path class="cls-5" d="M1348.36,367.72l-25.5,73.14a27.48,27.48,0,0,1-35,16.9l-119.32-41.6a27.48,27.48,0,0,1-16.9-35l25.5-73.14a83.37,83.37,0,0,1,106.16-51.27l13.79,4.81A83.37,83.37,0,0,1,1348.36,367.72Z" />
                    <path class="cls-4" d="M1147.1,390.24a30.44,30.44,0,0,1,1.72-10.06l25.5-73.14a86.44,86.44,0,0,1,110-53.11l13.8,4.81a86.44,86.44,0,0,1,53.1,110l-25.5,73.14a30.46,30.46,0,0,1-38.8,18.74L1167.56,419a30.53,30.53,0,0,1-20.46-28.74ZM1350,340.35a80.52,80.52,0,0,0-53.92-76l-13.79-4.81A80.48,80.48,0,0,0,1180,309l-25.5,73.15a24.49,24.49,0,0,0,15.07,31.19l119.32,41.6A24.49,24.49,0,0,0,1320,439.88l25.5-73.15A80.06,80.06,0,0,0,1350,340.35Z" />
                </g>
                <g>
                    <path class="cls-6" d="M1221.93,458c-51.44-17.94-86.78-50.71-76-81.78l2.69-7.7a7.78,7.78,0,0,1,14.22-.87c10.81,20.79,38.62,37.92,73.12,49.95s66.94,15.9,88.32,6.34a7.79,7.79,0,0,1,10.61,9.52l-2.69,7.7C1321.42,472.23,1273.37,475.92,1221.93,458Z" />
                    <path class="cls-4" d="M1141,387.73a38,38,0,0,1,2.15-12.51l2.7-7.73a10.49,10.49,0,0,1,9.3-7,10.71,10.71,0,0,1,10.39,5.8c9.66,18.59,35,35.81,71.45,48.51s67,15,86.11,6.43a10.72,10.72,0,0,1,11.75,1.91,10.49,10.49,0,0,1,2.9,11.31s-1.1,3.17-1.89,5.43l-.79,2.28c-5.57,16-20.22,25.91-42.38,28.78-20.11,2.61-45.59-1-71.76-10.1s-48.35-22.16-62.48-36.7C1146.91,412.22,1141,399.84,1141,387.73Zm191.37,43.2a4.58,4.58,0,0,0-1.56-3.41,4.82,4.82,0,0,0-5.27-.86c-26.29,11.75-63.74,3.09-90.52-6.25s-61.5-25.83-74.79-51.39a4.81,4.81,0,0,0-4.66-2.6,4.55,4.55,0,0,0-4.09,3.09c-.08.2-2.65,7.58-2.68,7.68-6,17.27,4.25,32.78,13.94,42.75,13.49,13.89,34.86,26.4,60.16,35.22s49.82,12.31,69,9.82c13.79-1.78,31.48-7.54,37.5-24.81l2.68-7.69A4.73,4.73,0,0,0,1332.38,430.93Z" />
                </g>
                <g>
                    <path class="cls-3" d="M1327.07,171c22.29-35,43.58-50.82,64.67-48.34a22.78,22.78,0,0,1,15.51,9c11.94,15.38,9.91,46.5,7.6,63.79-2.13,20.79.73,51.19,11.65,54.39,6.89,2,18.69-7.57,27-29.33,15.57-40.93,43.71-246.75,43.74-247.18l19.86,1.6c-.15,1.85-28.41,209.11-45,252.67-14.25,37.44-36.48,45.68-51.2,41.36-14.55-4.27-23.22-19-25.78-43.83a172,172,0,0,1-.06-31.89l0-.28c3.51-26.21.74-43.53-3.57-49.07-1-1.34-1.73-1.42-2.1-1.47-15.93-1.87-38,22.08-60.63,65.72a613.54,613.54,0,0,0-28.63,65.42,10,10,0,0,1-12.55,5.95h0a10,10,0,0,1-6.14-12.89A627.9,627.9,0,0,1,1311,199.23Q1319.12,183.51,1327.07,171Z" />
                    <path class="cls-4" d="M1277.84,270.15a13,13,0,0,1,.81-4.5,632.29,632.29,0,0,1,29.68-67.79c5.45-10.53,10.9-20.09,16.22-28.43h0c23-36.08,45.1-52.33,67.53-49.7a25.7,25.7,0,0,1,17.53,10.17c12.62,16.25,10.56,48.33,8.21,66-2.22,21.65,1.45,48.76,9.53,51.12,4.66,1.37,15.3-6.43,23.32-27.52,15.41-40.48,43.53-245.94,43.56-246.36l.24-3,25.82,2.08-.24,3c-.15,1.87-28.46,209.58-45.17,253.49-15,39.35-38.89,47.85-54.83,43.17s-25.22-20.25-27.91-46.39a173.33,173.33,0,0,1-.06-32.52l0-.31c3.38-25.27.83-42-3-46.89a3.51,3.51,0,0,0-.3-.35c-14.45-1.39-35.87,22.54-57.42,64.14A614.11,614.11,0,0,0,1303,274.67a13,13,0,0,1-25.11-4.52Zm135.8-99.64c0-13.78-2-28.21-8.75-36.94a19.82,19.82,0,0,0-13.5-7.9c-19.94-2.34-40.15,13-61.8,47h0c-5.22,8.18-10.58,17.59-15.95,27.95a625.65,625.65,0,0,0-29.38,67.13,7,7,0,0,0,13.09,4.85,617.28,617.28,0,0,1,28.77-65.74c23.55-45.47,46.15-69.37,63.64-67.32a5.82,5.82,0,0,1,4.11,2.6c5.72,7.36,7.36,27.5,4.18,51.31l0,.23a170.88,170.88,0,0,0,.06,31.24c2.42,23.49,10.38,37.37,23.66,41.26,13.48,4,34-4,47.56-39.55,14.17-37.24,43.41-238.13,44.51-248.87l-13.91-1.12c-1.11,10.44-30.29,209.93-43.64,245-9.43,24.79-22.47,33.51-30.6,31.13-14.43-4.24-15.51-40.61-13.78-57.56A192.26,192.26,0,0,0,1413.64,170.51Z" />
                </g>
            </g>
            <g id="Effect">
                <rect class="cls-4" x="1412.85" y="564.29" width="46.2" height="5.98" transform="translate(-102.09 702.08) rotate(-26.57)" />
                <rect class="cls-4" x="1435.86" y="632.6" width="5.98" height="60.08" transform="translate(230.12 1686.53) rotate(-64.99)" />
                <rect class="cls-4" x="1350.41" y="703.6" width="5.98" height="39.28" transform="translate(-169.95 538.43) rotate(-21.2)" />
                <rect class="cls-4" x="989.27" y="309.44" width="5.98" height="35.6" transform="translate(-44.67 455.46) rotate(-25.3)" />
                <rect class="cls-4" x="920.38" y="368.1" width="5.98" height="57.24" transform="translate(83.02 947.91) rotate(-56.51)" />
                <rect class="cls-4" x="907.62" y="498.94" width="34.12" height="5.98" transform="translate(-125.8 443.22) rotate(-25.3)" />
            </g>
        </g>
        <g>
            <g>
                <g>
                    <path class="cls-6" d="M565.07,220a52.35,52.35,0,0,0-7.32-.56,51.07,51.07,0,0,0-7.27.56,46.18,46.18,0,0,0,0,91.27,50.26,50.26,0,0,0,7.21.51A46.15,46.15,0,0,0,565.07,220Zm-4.16,14.41c1.06-1.41,2.64-3.76,4.16-5.89,1-1.46,2-2.8,2.71-3.65a.67.67,0,0,1,1.18.62c-1.12,1.74-2.93,4.37-3.89,5.83-.33.45-.5.79-.61,1-.23.33,0,.44.28.33a1.92,1.92,0,0,1,.33-.45c1.25-1.79,4.06-5.89,4.79-7.17.74-.56,1.81.22,1.24.61a93.4,93.4,0,0,1-5.23,8.19c-.29.45.11.45.45-.06.9-.78,4-6.05,4.67-6.89.62-.57,1.63,0,1,.95-1,1.51-3.49,5.72-4.51,7.34-.22.23-.22.45.12.23a55.25,55.25,0,0,0,3.54-5c.57-.73,1.36-.17.74.73-.85,1.57-2.48,4.65-3.72,6.45-1.13,1.4-1.86,2.69-3,3.53a6.16,6.16,0,0,1-1.46.78c-1.35.84-4.11,0-5.07-1.46-1.07-1.28-.51-5,.28-6.39.4-1.45,1.24-3.19,1.58-4.48.39.11,1.24-.11,1.35,1.68C561.41,233.36,560.62,234.09,560.91,234.43Zm5.69,12.72c1.24-1.06,5.52-5.94,7.15-7,.79-.56,1.86.4,1.19.84-1.19,1.74-5.92,6.17-7.44,7.74-.51.62.11.73.45.28,1.07-.61,5.52-5.83,6.65-6.61.62-.68,1.58.33,1,1.17-1.47,1.46-5.13,5.67-6.65,7-.28.4-.28.62.17.4a36.65,36.65,0,0,0,4.84-4.88c.73-.45,1.64.28.91,1.18-1.36,1.4-4.06,4.48-5.75,6.22a13.9,13.9,0,0,1-4,3.36,4.35,4.35,0,0,1-1.46.45,5,5,0,0,1-5.35-2.69c-.85-1.4.5-5.5,1.4-6.78.79-1.52,2-3.31,2.71-4.77.51.06,1.41.39,1,2.24-.73,2.3-1.52,3-1.19,3.25.74-.84,1.75-1.9,2.93-3.08a74.81,74.81,0,0,1,6.26-5.83c.68-.9,1.8.17,1.13.84-2,2.19-5.75,5.83-6.09,6.39C566.09,247.21,566.26,247.54,566.6,247.15Zm1.91,16.32c1.64-1.12,7.55-5.5,9.36-6.67,1.07-.34,1.86,1.06,1.24,1.34-1.86,1.57-7.78,5.66-9.81,7.07-.39.45,0,.78.56.22,1.3-.5,7-5.33,8.46-5.94.79-.4,1.8.78.84,1.4-1.74,1.4-6.59,5.21-8.62,6.45-.22.33-.39.61,0,.61a46.05,46.05,0,0,0,6.43-4.37c.9-.56,1.69.39.62,1.29a90.91,90.91,0,0,1-7.22,5.66c-1.86,1.35-3.38,2.53-5.3,3a9.43,9.43,0,0,1-1.8.22c-2,.29-4.79-1.85-5.18-3.92-.68-1.79,1.69-6.22,2.93-7.18,1.12-1.51,2.7-3.19,3.94-4.76.06,0,.06.05.11.05.4.34,1.25.68.46,2.7-.17.28-.34.56-.46.78-1,1.51-1.91,2-1.63,2.3.45-.34,1-.73,1.63-1.12,3.16-2.19,7.95-5.5,10.26-6.84.79-.56,1.86.67,1.18,1.29-2.64,2-7.27,5.38-8,6C568,263.35,568.23,263.47,568.51,263.47Zm2.37,16.2c2.2-.95,9.41-4.65,11.5-5.49,1.18-.28,1.8,1.51,1.18,1.73-2.26,1.29-9.47,4.55-12.06,5.61-.68.56,0,.84.56.56,1.52-.33,8.85-4.48,10.49-4.88,1.07-.28,1.74,1.07.56,1.86-2.31,1.06-8.23,4.37-10.65,5.32-.51.17-.73.51.11.51,1.63-.57,5.81-2.75,7.55-3.48,1.18-.5,1.8.67.4,1.57-1.92,1.23-6.26,3.64-8.85,4.93-2.43,1.24-4.4,2.19-6.6,2.25a16.19,16.19,0,0,1-1.69-.12,5.9,5.9,0,0,1-5-5.38c-.4-2,3-6.33,4.62-7.4a15.43,15.43,0,0,1,2-1.63c1.08-.84,2.2-1.68,3.1-2.52.34.28,1.3.79.06,3-1.58,2.07-3.1,2.64-3,2.8,3.77-1.45,11.32-5.16,14.59-6.33,1.18-.51,1.8,1.12,1,1.46-3.21,1.73-8.91,4.54-9.92,5C570.6,279.33,570.6,279.67,570.88,279.67Zm16.62,14.86c-2.76,1-11.49,3.19-14.48,4.09-.62.23-.17.84.56.56,1.86-.05,10.71-3.14,12.57-3.47a1,1,0,0,1,.11,1.9c-2.47,1-9.8,3.37-12.51,4-.62.28-.73.39-.17.56a69.52,69.52,0,0,0,9.19-2.35c1.18-.12,1.8,1.12.17,1.62-2.54,1-7.83,2.8-10.82,3.87a25,25,0,0,1-7,1.29,10.75,10.75,0,0,1-2.59-.45c-2.48-.67-4.84-4.15-4.34-7.06,0-2,4.57-6.23,6.37-7.07a5.54,5.54,0,0,1,.56-.33c1.92-1.13,4.34-2.19,6.09-3.43.4.45,1.46,1.24-.56,3.43-2.37,1.9-3.83,2.29-3.72,2.69,4.28-1,13.24-3.54,17.36-4.21,1.12-.28,1.8,1.57.67,1.74-3.89,1.29-10.59,3.2-11.94,3.76-.51.11-.35.39,0,.39,2.42-.34,11.1-3.09,13.47-3.7C587.9,292.34,588.41,294.31,587.5,294.53Zm-45,1.12c-1.07-.56-8-2.24-11.72-3.64-1.35-.34-.56-2.08.51-1.85,4,.67,13,3.3,17.36,4.37.11-.51-1.41-.78-3.84-2.8-1.91-2.19-.62-2.92-.45-3.37a33.89,33.89,0,0,0,6.09,3.37l.56.28c1.92.89,6.26,5.15,6.31,7.12.68,2.91-1.74,6.28-4.28,6.95a8.4,8.4,0,0,1-2.59.45c-2.25.11-4.39-.68-6.93-1.4a71.49,71.49,0,0,1-10.82-3.65c-1.52-.28-1.13-2,.28-1.68a49.45,49.45,0,0,0,9.13,2.35c.62,0,.39-.22-.34-.44-2.65-.68-10-3-12.62-4-1.3-.5-.68-2.24.34-2,1.85.27,10.48,3.3,12.51,3.42.56.33,1.18-.34.39-.62-2.93-.79-11.49-2.8-14.14-3.87-1-.33-.45-2.3.84-2.24,2.48.61,11.1,3.25,13.41,3.81C543,296.16,543.15,295.87,542.53,295.65Zm15.16-11.16a6.12,6.12,0,0,1-4.84,5.67,10.69,10.69,0,0,1-2.37-.12,19.18,19.18,0,0,1-5.86-2.24,89.32,89.32,0,0,1-9-5c-1.41-.56-.73-2,.23-1.46a64.18,64.18,0,0,0,8.06,3.54c.45,0,.16-.17-.29-.4-2.31-1.29-8.22-4.37-10.42-5.55-1.3-.78-.51-2.18.39-1.74,1.75.45,9,4.55,10.43,4.94.79.39,1.07,0,.62-.45-2.54-1.18-9.86-4.49-12-5.89-.9-.22,0-2,1-1.62,2.2.78,9.52,4.6,11.5,5.55.45,0,.45-.34,0-.45-.85-.62-6.71-3.37-9.81-5.1-1.07-.45-.17-2,.9-1.69,3.21,1.29,10.54,4.71,14.26,6.4l.34.17c0-.12-.06-.28-.34-.51a18.13,18.13,0,0,1-2.54-2.47c-1.41-2.13-.33-2.74.12-3a19,19,0,0,0,2.42,2.13l2.76,2.07C554.88,278.33,558.14,282.64,557.69,284.49Zm-11.38-19.28c-2-1.35-8-5.39-9.86-7.07-.45-.33.39-1.85,1.46-1.29,1.58,1,7.55,5.5,9.3,6.73.11,0,.4-.45,0-.56-.79-.73-5.52-4-8.11-6.11-.74-.39.33-1.85,1.12-1.12,2.37,1.4,7.1,4.71,10.26,6.89.62.39,1.18.79,1.63,1.12.23-.11-.56-.67-1.63-2.24a8.81,8.81,0,0,1-.51-.78c-.62-2.25.34-2.58.51-2.75,0-.06,0-.06.06-.06a51.73,51.73,0,0,0,4.17,4.66c1.18,1.17,3.32,5.44,2.76,7.23a5.51,5.51,0,0,1-5.3,4,8.29,8.29,0,0,1-1.69-.28,17.86,17.86,0,0,1-5.13-2.86c-2.42-1.63-5.63-4.49-7.21-5.77-1.13-.84-.28-1.8.56-1.35A70.77,70.77,0,0,0,545,268c.4,0,.4-.11,0-.67-1.69-1.18-6.65-5-8.51-6.45a.82.82,0,0,1,.73-1.46c1.41.84,7.27,5.55,8.51,6.28C546.31,266,546.82,265.6,546.31,265.21Zm2-16.43c-1.52-1.57-6.37-6.11-7.61-7.68-.56-.51.4-1.63,1.3-1.07,1.46,1.24,5.63,6.23,7.21,7.35.28.11.28,0,.17-.34-.62-.67-4.4-4.43-6.09-6.62-.62-.56.34-1.45.9-1,1.52,1.23,4.06,3.75,6.26,6,1.24,1.24,2.37,2.36,3.21,3.14.34-.22-.68-1.12-1.41-3-.5-2.18.57-2.24.91-2.41.84,1.46,1.91,3.14,2.76,4.6.95,1.23,2.19,5.44,1.57,6.84a5.22,5.22,0,0,1-5.41,2.8,10.71,10.71,0,0,1-1.63-.56,13.17,13.17,0,0,1-4-3.47A47.83,47.83,0,0,1,541,247c-.9-.95-.06-1.63.68-.95a48.67,48.67,0,0,0,4.84,4.76c.46.28.46,0,.12-.39-1.47-1.23-5.07-5.49-6.48-7-.79-.84.45-1.68.84-1.12,1.07.73,5.58,5.89,6.65,6.56C548.17,249.4,548.45,249.28,548.34,248.78Zm1.52-15.14c-1.07-1.57-4.62-6.28-5.47-8-.34-.45.79-1.23,1.41-.51.85.85,3.44,5.11,4.68,7,.17.22.34.45.45.56s.28,0,.11-.28a6.75,6.75,0,0,0-.56-1c-.9-1.51-2.7-4.14-3.78-6-.45-.51.85-1.18,1.08-.56.73.84,1.68,2.13,2.7,3.59,1.52,2.07,3.1,4.43,4.17,5.77.17-.11-.28-.9-.73-2.86-.12-1.74.79-1.68,1.12-2A31,31,0,0,0,557,234c.45,1.35,1,5.11.17,6.39-.84,1.52-3.61,2.25-5.19,1.57a6.47,6.47,0,0,1-1.46-.89,29.12,29.12,0,0,1-3-3.59,51.78,51.78,0,0,1-3.84-6.34c-.45-1.06.29-1.45.74-.72,1,1.23,2.76,4,3.72,4.87.45.34.45,0,.17-.28-1.13-1.57-3.78-5.66-4.68-7.18-.45-.89.5-1.57.9-.89,1,.62,4.11,6.11,4.79,6.78C549.69,234.2,550,234.2,549.86,233.64Z" />
                    <g>
                        <path class="cls-7" d="M483.15,263.33v-1.12h.39v1.12Zm0-2.13c.68,1.57,2.31,3,5.13,3,5.74,0,7.89-4.15,7.89-10.26l.05-31.79h3.72V221H487v1.12h4.51l-.06,34.7c-.06,4.94-1.07,6.45-3.38,6.45-1.69,0-2.42-.62-2.76-1.18a2.77,2.77,0,0,0-.06-5.49,2.32,2.32,0,0,0-2.14,1.18v3.42Zm0-39.14V221h.28v1.06Zm0-1.06v1.06h-3.49l-.06,40.15h3.55v1.12l-12.23-.06v-1.06H475V241.35H462L462,262.21h4v1.06H453.45v-1.12l3.72.06.06-40.15h-3.72v-1.12H466v1.12h-4v18.06h13l0-18.06h-4V221Zm0,36.78a3.16,3.16,0,0,0-.39,1.62,4.18,4.18,0,0,0,.39,1.8v-3.42Zm-43.22,5.32v-1.34c5-1.57,7.27-8,7.32-17.78v-3.86c0-10-2.36-16.1-7.32-17.67v-1.34c7.83,1.29,12.73,9.19,12.73,21C452.66,254.69,447.87,262,439.93,263.1Zm-63.51-22.59c.05-13.35,3.6-19.06,10-19.06,5.12,0,8.45,5.15,9.3,10.37,0,.45.28.61.5.61s.45-.16.45-.61V220.6c0-.28,0-.5-.33-.5s-.4.22-.57.45l-2.09,3.36a8.57,8.57,0,0,0-7.26-3.59c-10.32,0-15.56,11-15.56,22s5.07,21.81,15.39,21.87a9.8,9.8,0,0,0,7.72-4l2.31,3.31c.22.4.45.62.68.62s.28-.22.28-.79l.05-11.83c0-.72-.22-1.06-.5-1.06s-.57.34-.62.95c-1.07,5.44-4,11.66-9.92,11.66-6.09,0-9.86-6.28-9.86-19.06v-3.53Zm63.51-19.4v1.34a9.65,9.65,0,0,0-2.88-.44h-4.39l-.12,40.14h4.68a8.59,8.59,0,0,0,2.71-.39v1.34a14,14,0,0,1-2.26.12H424.09v-1.07h3.72l.06-40.14h-3.72v-1.12l13.47.05a15.79,15.79,0,0,1,2.31.17Zm-23.45,28V232.88c0-.5-.17-.73-.5-.73a.6.6,0,0,0-.62.68c-.23,3.59-.45,7.62-3.5,7.62h-4.28l.06-18.5h7.6c4.17,0,5,3.42,5.36,8.69.11.73.28,1,.62,1s.5-.17.5-1l.06-8.35c0-1-.45-1.4-1.3-1.4l-21.41-.06V222h3.78l-.06,40.14h-3.72v1.07l22.54.06c1,0,1.47-.34,1.47-1.46v-10.6c0-.62-.06-.95-.51-.95s-.56.5-.62,1.18c-.62,5.21-1.24,10.7-7.44,10.7h-6.93V241.46h4.28c3.05.06,3.21,4,3.44,7.63a.6.6,0,0,0,.62.67C416.26,249.76,416.48,249.54,416.48,249.09Z" />
                        <path class="cls-8" d="M496.56,312.56v-.68h.17A1.37,1.37,0,0,0,498,311a4.2,4.2,0,0,0,.45-2.25,6.82,6.82,0,0,0-.5-3,2,2,0,0,0-1.36-1.19v-.67h.06a2.8,2.8,0,0,1,2.2,1.07,5.3,5.3,0,0,1,.9,3.08,6,6,0,0,1-.9,3.2,3,3,0,0,1-2.26,1.35Zm0-15.93v-.73a1.6,1.6,0,0,0,.85.23,1.28,1.28,0,0,0,.9-.29,1.08,1.08,0,0,0,.39-.83,1.78,1.78,0,0,0-1.07-1.52l-1-.67-.06-.06v-1.9a4.27,4.27,0,0,0,.73.61,9.69,9.69,0,0,1,1.19.73,2.91,2.91,0,0,1,.67.45,1.88,1.88,0,0,1,.34.78,1.28,1.28,0,0,1,.23.85,2.81,2.81,0,0,1-.62,1.74,2.57,2.57,0,0,1-1.69.67c-.17,0-.51-.06-.85-.06Zm0-8v-.56a2.2,2.2,0,0,1,.57-.05h.28c.17,0,.33.05.51.05l.45.06.33.22c.06,0,.17-.05.34-.22h.17v2.58H499a5.71,5.71,0,0,0-.73-1.63,1.46,1.46,0,0,0-1.07-.62,2.17,2.17,0,0,0-.68.17Zm0-8v-.34c.4,0,.68-.05.73-.27a4.19,4.19,0,0,0,.12-1.18v-8.41a3.32,3.32,0,0,0-.12-1.12c-.05-.23-.33-.28-.73-.28v-.56l1.86-.9h.28v11.27a4.19,4.19,0,0,0,.12,1.18c.05.22.33.27.67.27h.28v.34Zm0-12.16v.56h-.22v-.45l.22-.11Zm0,11.82v.34h-.22v-.34Zm0,7.74v.56a2,2,0,0,0-.28.17,1.4,1.4,0,0,0-.34,1,1.8,1.8,0,0,0,.62,1.13v1.9a8.48,8.48,0,0,1-1.24-1.06,3.16,3.16,0,0,1-.34-1.35,2.61,2.61,0,0,1,.57-1.68,2.35,2.35,0,0,1,1-.62Zm0,7.85v.73h-.34a2,2,0,0,0-.67-.22c-.06,0-.23,0-.34,0H495v-2.85h.23c.11.55.28,1,.34,1.28a2.27,2.27,0,0,0,.5.68l.51.33Zm0,8v.67h-.22a1.21,1.21,0,0,0-1.19.79,4.62,4.62,0,0,0-.5,2.13v.23a6.94,6.94,0,0,0,.56,3,1.91,1.91,0,0,0,1.35,1.23v.68h-.11a2.67,2.67,0,0,1-2.2-1.24,5.27,5.27,0,0,1-.84-3v-.11a6.3,6.3,0,0,1,.84-3.14,2.71,2.71,0,0,1,2.31-1.24Zm-4.84,6v-.22h0l0,.22Zm0-13.68v-1.12a4.94,4.94,0,0,0,.39-2.19,7.9,7.9,0,0,0-.39-2.74v-1.74a2.9,2.9,0,0,1,.78.67,4.9,4.9,0,0,1,.91,3.08,5.25,5.25,0,0,1-.91,3.2,3.51,3.51,0,0,1-.78.84Zm0-15.58v-.9a1.3,1.3,0,0,1,.39-.11c.11-.17.39-.34.68-.73v-3l-.68.39a2.23,2.23,0,0,0-.39.23v-.73a1.14,1.14,0,0,1,.28-.17l.79-.39v-.39a3.32,3.32,0,0,0-.23-1.63.79.79,0,0,0-.79-.5h0v-.57h.11a2,2,0,0,1,2.08,1.52,1.8,1.8,0,0,1,.06.33c0,.23.11.34.11.51v4.43c0,.73.12,1.06.29,1.06s.33-.22.61-.5V280a1.55,1.55,0,0,1-1.24.78c-.56,0-.9-.45-.95-1.23C492.34,280,492,280.37,491.72,280.6Zm0-8.53v.57c-.29,0-.51.05-.62.22a1.81,1.81,0,0,0-.23.67v.73c0,.28-.06.56-.17.62a.6.6,0,0,1-.45.28c-.34,0-.62-.34-.62-1a2.34,2.34,0,0,1,2.09-2.13Zm0,3.65v.73a2.24,2.24,0,0,0-1.08,1.9,2.5,2.5,0,0,0,.17,1,.74.74,0,0,0,.68.39h.23v.9a2.75,2.75,0,0,1-.91.22,1.27,1.27,0,0,1-1-.51,2.89,2.89,0,0,1-.45-1.45,3.75,3.75,0,0,1,.11-.9,2.43,2.43,0,0,1,.45-.78,1.83,1.83,0,0,1,.73-.73,8.39,8.39,0,0,1,1.08-.73Zm0,12.67v1.74a1,1,0,0,1-.17-.28c-.4-.79-.91-1.18-1.47-1.18a1.47,1.47,0,0,0-1.29.73,5.87,5.87,0,0,0-.46,2.18v.23a6.32,6.32,0,0,0,.62,3c.34.73.85,1.18,1.41,1.18h.06a1.41,1.41,0,0,0,1.24-.85c0-.05,0-.11.06-.11v1.12a2.66,2.66,0,0,1-1.58.51,2.7,2.7,0,0,1-2.14-1.18,4.92,4.92,0,0,1-1-3v-.17a4.89,4.89,0,0,1,1-3,2.56,2.56,0,0,1,2.31-1.29,2.59,2.59,0,0,1,1.41.39Zm0,21.25v.22a3.19,3.19,0,0,1-.51,1,2.72,2.72,0,0,1-.45.73,2.15,2.15,0,0,1-1.75,1,2.39,2.39,0,0,1-2-1.24,5.59,5.59,0,0,1-.79-2.91,5.65,5.65,0,0,1,.9-3.2,2.82,2.82,0,0,1,2.25-1.35,2,2,0,0,1,2.09,2c0,.57-.28.85-.68.85a.65.65,0,0,1-.45-.28,1.49,1.49,0,0,1-.28-.73,1.42,1.42,0,0,0-.28-.9.86.86,0,0,0-.68-.23,1.46,1.46,0,0,0-1.18.85,4.8,4.8,0,0,0-.57,2.35,4.12,4.12,0,0,0,.63,2.36,1.7,1.7,0,0,0,1.57,1.06,2.12,2.12,0,0,0,1-.33,5.7,5.7,0,0,0,1-1.29h.06l.17.11Zm-12-13.18v-.67a4.34,4.34,0,0,0,.11-1.07v-4a5,5,0,0,0-.11-1v-1.4l1.13-.62h.22v1.74c.34-.45.68-1,1-1.07a2,2,0,0,1,1-.33,1.47,1.47,0,0,1,1.24.67,3.45,3.45,0,0,1,.51,2v4c0,.62.06,1,.06,1.18s.33.23.73.23h.28v.33h-3.27v-.33h.06c.34,0,.62-.06.68-.23a2.62,2.62,0,0,0,.16-1.18v-3a9.66,9.66,0,0,0-.16-2.19.83.83,0,0,0-.79-.56.87.87,0,0,0-.68.34,3.06,3.06,0,0,0-.79,1.06v4.37a3.57,3.57,0,0,0,.17,1.18c.06.17.34.23.68.23h.11v.33Zm0-15.92v-.84a1,1,0,0,1,.39-.11,3.08,3.08,0,0,0,.68-.73v-3l-.68.39a2.23,2.23,0,0,0-.39.23v-.73l.22-.17.85-.39v-.39a6.61,6.61,0,0,0-.17-1.63.82.82,0,0,0-.85-.5h-.05v-.57h.11a2,2,0,0,1,2.09,1.52,2.12,2.12,0,0,1,0,.33c0,.23.06.34.06.51v4.43c0,.73.17,1.06.39,1.06s.34-.22.57-.5V280a1.57,1.57,0,0,1-1.24.78c-.51,0-.9-.45-1-1.23a7.94,7.94,0,0,1-1.07,1Zm4.56-8c.12,0,.34-.22.4-.22a3.76,3.76,0,0,1,.34-.56,2.56,2.56,0,0,0,.45-.68,10.66,10.66,0,0,0,.56-1.29h.23v2.53h1.35V273h-1.35v5.38c0,.95.28,1.51.67,1.51.23,0,.57-.28.9-.84l.12.34a3,3,0,0,1-.79,1,1.49,1.49,0,0,1-.9.39c-.79,0-1.24-.84-1.24-2.47V273h-.74v-.51Zm-4.39,39.87v-2.86h.28c.11.45.28,1,.34,1.29s.28.45.45.67a2.25,2.25,0,0,0,1.41.56,1.26,1.26,0,0,0,.9-.39.91.91,0,0,0,.39-.79,2.08,2.08,0,0,0-.28-.89,3.21,3.21,0,0,0-.79-.62l-1-.67a4.42,4.42,0,0,1-1.3-1.13,2.07,2.07,0,0,1-.39-1.4,2.34,2.34,0,0,1,.62-1.63,1.88,1.88,0,0,1,1.52-.67h.34a2.7,2.7,0,0,1,.39.06l.57.11.33.17c.06,0,.12-.11.29-.17h.17v2.47H484a6,6,0,0,0-.68-1.57,1.52,1.52,0,0,0-1.18-.56,1.29,1.29,0,0,0-.85.33,1.17,1.17,0,0,0-.39,1c0,.45.5,1.06,1.4,1.68.62.34,1.08.67,1.19.73s.39.34.62.5a2.52,2.52,0,0,1,.39.68,1.81,1.81,0,0,1,.23.95,2.39,2.39,0,0,1-.68,1.68,2.36,2.36,0,0,1-1.63.68c-.34,0-.73-.06-1.3-.06a5.94,5.94,0,0,0-.56-.22c-.06,0-.23.11-.34.11Zm-.17-40.32v.57a.74.74,0,0,0-.57.22,1,1,0,0,0-.28.67v.73c0,.28-.05.56-.17.62a.47.47,0,0,1-.45.28c-.39,0-.67-.34-.67-1a2,2,0,0,1,.67-1.4,2.33,2.33,0,0,1,1.47-.73Zm0,3.65v.73a2.32,2.32,0,0,0-1,1.9,2.36,2.36,0,0,0,.12,1,.76.76,0,0,0,.73.39h.17v.84l-.06.06a1.89,1.89,0,0,1-.84.22,1.37,1.37,0,0,1-1-.51,3,3,0,0,1-.39-1.45,3.75,3.75,0,0,1,.11-.9,2.57,2.57,0,0,1,.34-.78,3.22,3.22,0,0,1,.84-.73,6.93,6.93,0,0,1,1-.73Zm0,12.56v1.4a.06.06,0,0,0-.06-.06.77.77,0,0,0-.73-.33h-.17v-.51l1-.5Zm0,7.51v.67h-1v-.33H479c.39,0,.68-.06.73-.23s.06-.06.06-.11Zm-5.3.62v-.9a.68.68,0,0,0,.34-.11c.22-.06.45-.34.73-.68v-3l-.73.44-.34.17v-.73l.23-.11.84-.45v-.44a4.78,4.78,0,0,0-.17-1.57,1,1,0,0,0-.84-.57h-.06V288h.17a2,2,0,0,1,2.09,1.51v.34c0,.16,0,.33,0,.45v4.42c0,.68.11,1,.4,1,.11,0,.28-.16.45-.39v.56a1.48,1.48,0,0,1-1.13.79c-.56,0-.9-.45-1-1.29a7.82,7.82,0,0,1-1.07,1Zm0-15.59v-2.41c0,.95.23,1.51.68,1.51.22,0,.45-.28.79-.84l.22.34a3.75,3.75,0,0,1-.79,1,1.62,1.62,0,0,1-.9.39Zm0-7.79v-.73h1.3V273Zm3,30.5v7.06a7.2,7.2,0,0,0,.05,1.23c.06.12.29.23.68.23h.28v.34h-3.38v-.34h.17a.84.84,0,0,0,.68-.23,2.22,2.22,0,0,0,.22-1.23V306.5a2,2,0,0,0-.22-1.07,1,1,0,0,0-.68-.33h-.17v-.34l2.09-1.18.28-.05Zm-1.58-3a1.23,1.23,0,0,1,.22-.79,1.17,1.17,0,0,1,.63-.34c.16,0,.39.23.5.34a1.64,1.64,0,0,1,.23.79,1.16,1.16,0,0,1-.23.73.67.67,0,0,1-.5.33.68.68,0,0,1-.57-.22A1.7,1.7,0,0,1,475.88,300.56Zm-1.41-28.26v8.52c-.84,0-1.24-.84-1.24-2.47V273h-.79v-.51c.12,0,.28-.22.34-.22s.28-.34.45-.56a2.63,2.63,0,0,0,.4-.68,10.66,10.66,0,0,0,.56-1.29h.28v2.53Zm0,15.7v.44a2.08,2.08,0,0,0-.62.29,1.37,1.37,0,0,0-.22.67v.78c0,.23,0,.51-.17.56a.69.69,0,0,1-.45.28c-.4,0-.62-.33-.62-.95a2,2,0,0,1,.62-1.4,2.49,2.49,0,0,1,1.46-.67Zm0,3.58v.73a2.28,2.28,0,0,0-1.07,1.91,1.56,1.56,0,0,0,.23.95c.05.23.39.4.67.4a.19.19,0,0,0,.17-.06v.9a1.53,1.53,0,0,1-.84.28,1.36,1.36,0,0,1-1.07-.56,2.6,2.6,0,0,1-.46-1.41,4.68,4.68,0,0,1,.17-.89,3.38,3.38,0,0,1,.34-.73,10.78,10.78,0,0,1,.79-.84c.17-.12.62-.39,1.07-.68Zm-8.85,20.7v-.85l.4-.16a2.47,2.47,0,0,0,.67-.68v-3L466,308a.94.94,0,0,0-.4.23v-.73l.23-.17.84-.39v-.51a3.42,3.42,0,0,0-.22-1.57.75.75,0,0,0-.79-.5h-.06v-.51h.12a2,2,0,0,1,2.08,1.52,1.17,1.17,0,0,1,.06.34c0,.1.06.33.06.39v4.48c0,.68.16,1,.45,1,.05,0,.22-.11.5-.39v.61a1.79,1.79,0,0,1-1.29.74c-.45,0-.85-.4-.91-1.29a3.44,3.44,0,0,1-1.07,1Zm0-15.82v-7.68a2.71,2.71,0,0,1,.23.73c.45-.5.79-.9,1-1.12a1.8,1.8,0,0,1,1.19-.39c1.13,0,1.74,1,1.74,2.86v3.86a4.13,4.13,0,0,0,.12,1.18c0,.17.33.23.67.23h.28v.33h-3.32v-.33h.17c.34,0,.56-.06.68-.23a4.73,4.73,0,0,0,.11-1.18v-3.86c0-1.24-.34-1.91-1.07-1.91-.45,0-1,.39-1.36,1.23v4.54a4.13,4.13,0,0,0,.12,1.18c.11.17.28.23.62.23H467v.33Zm.74-15.81v-2.91h.28A7.17,7.17,0,0,0,467,279a2.09,2.09,0,0,0,.45.67,2.4,2.4,0,0,0,1.41.61,1.49,1.49,0,0,0,.84-.33,1.17,1.17,0,0,0,.45-.9,1.29,1.29,0,0,0-.28-.78,1.59,1.59,0,0,0-.79-.68l-1-.72a4.36,4.36,0,0,1-1.3-1.07,2.25,2.25,0,0,1-.39-1.35,2.17,2.17,0,0,1,.62-1.68,2,2,0,0,1,1.52-.73h.34c.11,0,.34.12.45.12l.5.11.34.17c.06,0,.17-.12.34-.17h.11v2.52h-.11a4.37,4.37,0,0,0-.79-1.62,1.34,1.34,0,0,0-2-.23,1,1,0,0,0-.34.9c0,.56.45,1.06,1.35,1.68a4.89,4.89,0,0,1,1.19.79,2.72,2.72,0,0,1,.62.5,2,2,0,0,1,.39.67,2.17,2.17,0,0,1,.23.9,2.7,2.7,0,0,1-.62,1.68,2.3,2.3,0,0,1-1.69.73c-.34,0-.74-.11-1.3-.11a4.22,4.22,0,0,0-.56-.11c-.12,0-.23,0-.34,0Zm6.25,18.67v11.27a5.63,5.63,0,0,0,.11,1.23c.06.12.34.23.74.23h.22v.34H470.3v-.34h.23c.33,0,.62-.11.67-.23a3,3,0,0,0,.17-1.23v-8.41a5.63,5.63,0,0,0-.11-1.23,1.14,1.14,0,0,0-.73-.23h-.23v-.45l2.09-.95Zm-7-10.54v7.68h-1.74v-.33h.05c.34,0,.62-.06.68-.23a2.58,2.58,0,0,0,.17-1.18v-3.53c0-1.51-.4-2.24-1-2.24s-1,.45-1.58,1.4v4.37a4.73,4.73,0,0,0,.11,1.18c.12.17.34.23.79.23h.12v.33H460v-.33h.12c.34,0,.62-.06.67-.23a2.25,2.25,0,0,0,.23-1.18v-4a3,3,0,0,0-.17-1.07.77.77,0,0,0-.73-.33H460v-.51l2-1.12h.22v1.74a9.44,9.44,0,0,1,1.07-1.07,2.05,2.05,0,0,1,1.07-.33,1.37,1.37,0,0,1,1.24.78Zm0,15.08v.51a.82.82,0,0,0-.56.23,1.38,1.38,0,0,0-.28.72v.73a1,1,0,0,1-.17.62c-.17.11-.34.28-.4.28-.39,0-.67-.45-.67-1a2,2,0,0,1,.67-1.46,2,2,0,0,1,1.41-.67Zm0,3.65v.73a2.17,2.17,0,0,0-1.07,1.85,1.73,1.73,0,0,0,.17.9,1.07,1.07,0,0,0,.68.5c.06,0,.11-.06.22-.06v.85a1.45,1.45,0,0,1-.9.28,1.27,1.27,0,0,1-1-.51,2.93,2.93,0,0,1-.45-1.46,4.67,4.67,0,0,1,.11-.95,3,3,0,0,1,.45-.73c.23-.22.45-.56.73-.79s.62-.33,1.07-.61Zm-25.19-26.69v-.73h.12a1.39,1.39,0,0,0,1.24-.78,4.56,4.56,0,0,0,.56-2.3,8.41,8.41,0,0,0-.28-2.08,4,4,0,0,0-.74-1.57,1.71,1.71,0,0,0-.9-.56v-.73h.12a2.82,2.82,0,0,1,2.14,1.13,4.83,4.83,0,0,1,1,3,5.16,5.16,0,0,1-1,3.2,2.83,2.83,0,0,1-2.26,1.4Zm0-10.09v-1.07l.4-1.74h1.58l-2,2.81Zm6.77,1v1.79a3.65,3.65,0,0,1,.95-1.06,2.32,2.32,0,0,1,1-.4,1.39,1.39,0,0,1,1.24.73,3.32,3.32,0,0,1,.51,2v4A2.92,2.92,0,0,0,451,280c.06.22.34.27.73.27h.17v.34h-3.21v-.34h.06c.34,0,.62-.05.67-.27s.23-.62.23-1.18v-3a6.79,6.79,0,0,0-.23-2.24.84.84,0,0,0-.78-.56,1.31,1.31,0,0,0-.68.33,3.38,3.38,0,0,0-.73,1.12v4.38a4.33,4.33,0,0,0,.11,1.18c.05.22.34.27.67.27h.17v.34h-3.32v-.34h.23c.39,0,.67-.05.67-.27a2.6,2.6,0,0,0,.17-1.18v-4a2.44,2.44,0,0,0-.17-1.12.79.79,0,0,0-.67-.34h-.23V273l2.08-1.23Zm12.34,2h2a2,2,0,0,0,1.07-.22A2.69,2.69,0,0,0,463,272h.45v4.26H463a2.72,2.72,0,0,0-.39-1.34,2.24,2.24,0,0,0-1.13-.34h-2v4.32a1.5,1.5,0,0,0,.17.78,1.7,1.7,0,0,0,.67.12h1.18a7.66,7.66,0,0,0,1.41-.12,2.6,2.6,0,0,0,.85-.78,4.52,4.52,0,0,1,.39-.56,4.13,4.13,0,0,1,.34-1l.45.06-.73,3.25h-7.49v-.56H457a.92.92,0,0,0,.84-.33,2.46,2.46,0,0,0,.28-1.46v-7.57a4,4,0,0,0-.17-1.52,1.3,1.3,0,0,0-.95-.44h-.17v-.51h7.43l.06,2.8h-.45a3.34,3.34,0,0,0-.51-1.57,2.1,2.1,0,0,0-1.29-.39h-2.48v4.6Zm-15.44,16h4.17v-3.08A3.14,3.14,0,0,0,448,285a1,1,0,0,0-.9-.45H447v-.45h4v.45h-.17a1.37,1.37,0,0,0-.9.33,5.54,5.54,0,0,0-.17,1.63v7.62a4.26,4.26,0,0,0,.17,1.52,1.15,1.15,0,0,0,.9.34H451v.44h-4V296h.17a1,1,0,0,0,.84-.34,2.81,2.81,0,0,0,.29-1.52v-3.42H444.1v3.42a3,3,0,0,0,.22,1.52,1,1,0,0,0,.85.34h.22v.44h-4.06V296h.12a1.15,1.15,0,0,0,.9-.34,3.59,3.59,0,0,0,.28-1.52v-7.62a2.94,2.94,0,0,0-.22-1.51,1.12,1.12,0,0,0-1-.45h-.12v-.45h4.06v.45h-.22a1.23,1.23,0,0,0-.85.33,4.12,4.12,0,0,0-.22,1.74v3.08Zm10.25-1.62v5.44c0,1.46.34,2.18,1,2.18a2.24,2.24,0,0,0,1.47-1.12V290a5.78,5.78,0,0,0-.11-1.23,1.16,1.16,0,0,0-.68-.34h-.17v-.33h2.25v6.11a4.28,4.28,0,0,0,.06,1.12c.05.17.39.23.84.23V296l-2,.78h-.22v-1.4a6.44,6.44,0,0,1-1,1,1.61,1.61,0,0,1-1,.28c-1.13,0-1.75-1-1.75-2.92V290a2.9,2.9,0,0,0-.17-1.23.87.87,0,0,0-.73-.34H452v-.33Zm3.55,11.83h4v.56h-.23c-.45,0-.73.11-.84.34a3.29,3.29,0,0,0-.23,1.62v6.28a6.24,6.24,0,0,1-.51,2.81,2,2,0,0,1-1.86,1,1.92,1.92,0,0,1-.95-.34,1.64,1.64,0,0,1-.34-1,1.13,1.13,0,0,1,.17-.68.49.49,0,0,1,.51-.33.54.54,0,0,1,.45.28,2.92,2.92,0,0,1,.33,1,.41.41,0,0,0,.34.33c.28,0,.45-.33.45-.95v-8.41a4,4,0,0,0-.17-1.57,1.09,1.09,0,0,0-1-.39h-.12Zm-17.47-30.28v1.07l-.28.39.28-1.46Zm0,2.41v.73h-.17a1.39,1.39,0,0,0-1.29.73,6,6,0,0,0-.45,2.25,9.65,9.65,0,0,0,.28,2.18,3.69,3.69,0,0,0,.73,1.63,1.3,1.3,0,0,0,.9.5v.73h-.05a2.81,2.81,0,0,1-2.2-1.18,5,5,0,0,1-.9-3.08v-.06a5.18,5.18,0,0,1,.9-3.14,2.8,2.8,0,0,1,2.25-1.29Zm-13.8,24.62V296h.17a1.49,1.49,0,0,0,1.24-.85,5.21,5.21,0,0,0,.45-2.3,7.67,7.67,0,0,0-.51-3,2.2,2.2,0,0,0-1.35-1.18V288h.05a2.86,2.86,0,0,1,2.2,1.06,5.3,5.3,0,0,1,.9,3.08,5.68,5.68,0,0,1-.9,3.2,3,3,0,0,1-2.25,1.35Zm0-16.09v-2.3c.05.28.17.56.17.73.17.28.28.56.5.67a2.17,2.17,0,0,0,1.41.61,1.5,1.5,0,0,0,.85-.33,1.11,1.11,0,0,0,.39-.9,1.32,1.32,0,0,0-.22-.78,2.09,2.09,0,0,0-.85-.68l-1-.72a4.71,4.71,0,0,1-1.24-1.07V273c.05-.06.11-.17.17-.23a2,2,0,0,1,1.57-.73h.34c.11,0,.34.12.45.12l.45.11.34.17c.11,0,.23-.12.28-.17h.23v2.52h-.23a3,3,0,0,0-.67-1.62,1.39,1.39,0,0,0-1.13-.56,1.56,1.56,0,0,0-.9.33,1.2,1.2,0,0,0-.39.9c0,.56.56,1.06,1.4,1.68a12,12,0,0,1,1.24.79,4.53,4.53,0,0,1,.62.5,2.05,2.05,0,0,1,.4.67,2.43,2.43,0,0,1-.51,2.58,1.91,1.91,0,0,1-1.58.73c-.34,0-.73-.11-1.29-.11-.34-.06-.51-.11-.62-.11Zm8.11-8.86v7.12a2.6,2.6,0,0,0,.17,1.18c.06.22.28.27.62.27h.28v.34h-3.43v-.34h.22c.39,0,.68-.05.73-.27a4.19,4.19,0,0,0,.12-1.18v-4a3.93,3.93,0,0,0-.12-1.12.9.9,0,0,0-.73-.34h-.22V273l2.08-1.18.28-.11Zm-1.46-2.86a2.83,2.83,0,0,1,.11-.79,1,1,0,0,1,.62-.33c.28,0,.39.16.56.33a1.57,1.57,0,0,1,.23.79,1.53,1.53,0,0,1-.23.78c-.17.11-.34.34-.56.34a1,1,0,0,1-.56-.28,1.8,1.8,0,0,1-.17-.84Zm-2,27.58v-2.85h.29c.11.55.28,1,.33,1.28a3.63,3.63,0,0,0,.46.68,2.52,2.52,0,0,0,1.4.56,1.3,1.3,0,0,0,.91-.29.92.92,0,0,0,.39-.83,1.09,1.09,0,0,0-.28-.85,1.62,1.62,0,0,0-.79-.67l-1-.67a4.64,4.64,0,0,1-1.29-1.12,2.5,2.5,0,0,1-.4-1.35,2.39,2.39,0,0,1,.62-1.68,2.15,2.15,0,0,1,1.53-.67h.33c.17,0,.34.05.51.05l.45.06.34.22a.32.32,0,0,0,.28-.22h.17v2.58h-.17a3.06,3.06,0,0,0-.67-1.63,1.58,1.58,0,0,0-1.13-.62,2.14,2.14,0,0,0-.9.34,1.25,1.25,0,0,0-.4,1c0,.57.57,1.13,1.41,1.74.68.34,1.07.67,1.24.73a2.26,2.26,0,0,1,.56.45,2.14,2.14,0,0,1,.4.78,1.28,1.28,0,0,1,.22.85,2.58,2.58,0,0,1-.67,1.74,2.44,2.44,0,0,1-1.64.67c-.33,0-.73-.06-1.24-.06a1.53,1.53,0,0,0-.62-.22c-.05,0-.22,0-.33,0ZM426.63,273v2.8h0a2.26,2.26,0,0,1-.4-1.35,2.45,2.45,0,0,1,.4-1.45Zm0,5.27v2.3a.24.24,0,0,1-.17,0h-.23v-2.91h.23a4.73,4.73,0,0,0,.17.56Zm0,9.7v.67h-.23a1.48,1.48,0,0,0-1.24.73,6.09,6.09,0,0,0-.45,2.18v.23a7.23,7.23,0,0,0,.56,3c.4.67.79,1.12,1.36,1.18v.67h-.06a2.91,2.91,0,0,1-2.25-1.18,5.76,5.76,0,0,1-.85-3v-.17a5.73,5.73,0,0,1,.85-3,2.7,2.7,0,0,1,2.31-1.29Zm-21.76,8.46v-.95a2,2,0,0,0,1-.62,1.51,1.51,0,0,0,.4-.61,2,2,0,0,0,.39-.85l.34.12a4.15,4.15,0,0,1-2.09,2.91Zm0-5v-.73h.29a3,3,0,0,0-.29-1.17v-1.46A2.77,2.77,0,0,1,406,289a4.31,4.31,0,0,1,.62,2.52Zm0-10.65v-.73h.23a1.6,1.6,0,0,0,1.24-.78,6.28,6.28,0,0,0,.45-2.3,8.61,8.61,0,0,0-.56-3.09,2,2,0,0,0-1.36-1.12v-.73H405a3,3,0,0,1,2.2,1.13,5.19,5.19,0,0,1,.9,3,5.56,5.56,0,0,1-.9,3.2,3.07,3.07,0,0,1-2.32,1.4Zm6.77-9.08v1.79a4.73,4.73,0,0,1,1-1.06,2.76,2.76,0,0,1,1.07-.4c.68,0,1.19.57,1.47,1.52a6.32,6.32,0,0,1,1-1.07,2.22,2.22,0,0,1,1.13-.45c1.13,0,1.75,1.07,1.75,2.86v3.93a2.65,2.65,0,0,0,.16,1.18c.06.22.34.27.63.27h.28v.34h-3.27v-.34H417c.34,0,.62-.05.68-.27s.17-.62.17-1.18v-3.93c0-1.23-.34-1.9-1-1.9s-1.07.45-1.41,1.23v4.6a4.8,4.8,0,0,0,.11,1.18c.06.22.29.27.63.27h.16v.34h-3.15v-.34h0c.46,0,.63-.05.68-.27s.23-.62.23-1.18v-3.59c0-1.46-.4-2.24-1-2.24-.45,0-1,.5-1.46,1.45v4.38a6.27,6.27,0,0,0,.05,1.18c.06.22.34.27.74.27h.11v.34h-3.21v-.34h.22c.28,0,.51-.05.62-.27a2.6,2.6,0,0,0,.17-1.18v-4a4.51,4.51,0,0,0-.11-1.12,1,1,0,0,0-.68-.34h-.22V273l2-1.23Zm12,0v7.12a2.6,2.6,0,0,0,.17,1.18c.06.22.22.27.67.27h.23v.34h-3.38v-.34h.17c.39,0,.62-.05.68-.27a2.42,2.42,0,0,0,.22-1.18v-4a2.28,2.28,0,0,0-.22-1.12.81.81,0,0,0-.68-.34h-.17V273l2.08-1.18.23-.11Zm-1.52-2.86a1.68,1.68,0,0,1,.17-.79,1.12,1.12,0,0,1,.62-.33.85.85,0,0,1,.56.33,1.67,1.67,0,0,1,.23.79,1.63,1.63,0,0,1-.23.78c-.17.11-.39.34-.56.34a.92.92,0,0,1-.51-.28,1.39,1.39,0,0,1-.28-.84Zm-8.4,24.73.17.22a11.83,11.83,0,0,1-.45,1.18,3.65,3.65,0,0,1-.56.72,2,2,0,0,1-1.64,1,2.34,2.34,0,0,1-2-1.18,4.91,4.91,0,0,1-.79-3,5.23,5.23,0,0,1,.85-3.2,2.61,2.61,0,0,1,2.31-1.34,2.44,2.44,0,0,1,1.4.61,2,2,0,0,1,.68,1.4.65.65,0,0,1-.73.73.44.44,0,0,1-.45-.22,1.48,1.48,0,0,1-.23-.79A2.43,2.43,0,0,0,412,289a.65.65,0,0,0-.61-.28,1.57,1.57,0,0,0-1.3.84,4.7,4.7,0,0,0-.51,2.36,3.86,3.86,0,0,0,.62,2.35,1.75,1.75,0,0,0,1.52,1,1.82,1.82,0,0,0,1-.34,3.85,3.85,0,0,0,1-1.28Zm3.83-10.15v5.88a2.64,2.64,0,0,1,1-1.06,1.14,1.14,0,0,1,.9-.28c1.18,0,1.69,1,1.69,3v3.7a2.58,2.58,0,0,0,.17,1.18c.06.17.34.23.62.23h.28v.33H419v-.33H419c.39,0,.68-.06.73-.23a2.66,2.66,0,0,0,.12-1.18v-3.14a8.6,8.6,0,0,0-.12-2.07.8.8,0,0,0-.84-.56,1,1,0,0,0-.62.17,7.4,7.4,0,0,0-.74,1.18v4.42a4.13,4.13,0,0,0,.12,1.18c.05.17.28.23.67.23h.12v.33h-3.27v-.33h.22c.34,0,.57-.06.62-.23s.23-.56.23-1.18v-8.41a4.92,4.92,0,0,0-.11-1.12,1,1,0,0,0-.74-.33h-.22v-.39l2.08-1ZM399.8,278l.28.39a8.89,8.89,0,0,1-1,1.29,4.13,4.13,0,0,1-1,.67,4.62,4.62,0,0,1-1.92.45,3.81,3.81,0,0,1-3.27-1.74,7,7,0,0,1-1.3-4.54,7.51,7.51,0,0,1,1.36-4.71,4.29,4.29,0,0,1,3.38-1.79c.28,0,.68,0,1,0a3.61,3.61,0,0,1,1,.45c.11,0,.39.06.5.06s.4-.23.62-.56h.29l.11,4.26h-.4c-.16-.56-.28-1-.39-1.29a5.52,5.52,0,0,0-.56-.95,2.75,2.75,0,0,0-2.14-1.07,2.67,2.67,0,0,0-2.32,1.46,8.75,8.75,0,0,0-.84,3.81,16.28,16.28,0,0,0,.17,2.58,6.41,6.41,0,0,0,.84,1.85,3.32,3.32,0,0,0,2.43,1.23,3.94,3.94,0,0,0,2.59-1.29l.56-.61Zm5.07-5.95v.73h-.17a1.51,1.51,0,0,0-1.29.73,7.64,7.64,0,0,0-.4,2.25v.11a7.27,7.27,0,0,0,.57,3.08,1.78,1.78,0,0,0,1.29,1.12v.73h-.05a2.9,2.9,0,0,1-2.2-1.18,5.39,5.39,0,0,1-.9-3.08v-.06a5.61,5.61,0,0,1,.9-3.14,2.81,2.81,0,0,1,2.25-1.29Zm0,16v1.46c-.22-.62-.56-.9-1.07-.9-.79,0-1.29.73-1.46,2.07h2.53v.73h-2.53v.11a5.71,5.71,0,0,0,.62,2.81,1.82,1.82,0,0,0,1.52,1.18c.17,0,.28-.06.39-.06v.95a1.64,1.64,0,0,1-.9.23,2.4,2.4,0,0,1-1.91-1.12,5.35,5.35,0,0,1-.79-3,6.09,6.09,0,0,1,.79-3.2,2.39,2.39,0,0,1,2.08-1.34,2.67,2.67,0,0,1,.73.11Zm-13.8,8.58v-1.35a1.82,1.82,0,0,0,.79.23,1.75,1.75,0,0,0,1.29-.68,2.3,2.3,0,0,0,.4-.61,3,3,0,0,0,.45-.85l.28.12c-.62,2-1.69,3.14-3,3.14Zm0-5.22v-.73h1.41c-.17-1.34-.57-2.07-1.36-2.07h-.05v-.62a1,1,0,0,1,.39-.05,2.11,2.11,0,0,1,1.81.95,4.4,4.4,0,0,1,.73,2.52Zm6.65-3.81v1.74a2.93,2.93,0,0,1,.62-1.07,1.24,1.24,0,0,1,.84-.33.62.62,0,0,1,.57.28,1.32,1.32,0,0,1,.22.78,1.29,1.29,0,0,1-.11.62.67.67,0,0,1-.45.28h-.23a2.84,2.84,0,0,0-.39-.34.46.46,0,0,0-.4-.28c-.22,0-.39.51-.67,1.4v4a4.27,4.27,0,0,0,.11,1.18c.06.17.34.23.68.23H399v.33h-3.61v-.33h.23c.39,0,.56-.06.67-.23a2.44,2.44,0,0,0,.17-1.18v-4a2.05,2.05,0,0,0-.17-1.07.68.68,0,0,0-.67-.33h-.23v-.51l2.08-1.12Zm-6.65.39v.62c-.79,0-1.24.73-1.36,2.07h1.36v.73h-1.36v.11a6.57,6.57,0,0,0,.51,2.81,2.79,2.79,0,0,0,.85.95v1.35a2.45,2.45,0,0,1-1.69-1.12,5.89,5.89,0,0,1-.74-3,6.72,6.72,0,0,1,.74-3.2,2.62,2.62,0,0,1,1.69-1.29Zm-8.34,8.3v-1a.8.8,0,0,0,.34-.11,3.65,3.65,0,0,0,1.52-1.74,8.54,8.54,0,0,0,.56-3.08,6.83,6.83,0,0,0-1-3.93,3.75,3.75,0,0,0-1.41-1.23v-.95a2.84,2.84,0,0,1,.84.22,4.83,4.83,0,0,1,1.92,1.51,7.11,7.11,0,0,1,1.35,4.32,7.35,7.35,0,0,1-1.3,4.26A4.88,4.88,0,0,1,382.73,296.35Zm0-12.05v.95a4.21,4.21,0,0,0-1.69-.34H381a.72.72,0,0,0-.62.23.53.53,0,0,0-.06.22v9.81a2,2,0,0,0,.06.4,2.42,2.42,0,0,0,.62.11c.34,0,.73-.11,1.07-.11a3.63,3.63,0,0,0,.68-.23v1a5.64,5.64,0,0,1-1.36.11h-3.83V296h.06a1.43,1.43,0,0,0,1-.34,6.48,6.48,0,0,0,.17-1.52v-7.62a4.15,4.15,0,0,0-.17-1.51c-.06-.23-.51-.45-1-.45h-.06v-.45h2.93a12.46,12.46,0,0,1,2.26.17Zm-13.58,12.39v-1.35a2.11,2.11,0,0,0,.78.23,2,2,0,0,0,1.36-.68c0-.17.28-.39.34-.61a3.22,3.22,0,0,0,.45-.85l.28.12c-.62,2-1.69,3.14-3.05,3.14Zm0-5.22v-.73h1.41c-.17-1.34-.57-2.07-1.3-2.07h-.11v-.62a1.19,1.19,0,0,1,.39-.05,2,2,0,0,1,1.8.95,3.93,3.93,0,0,1,.74,2.52Zm0-3.42v.62c-.79.06-1.24.79-1.36,2.07h1.36v.73h-1.36v.11a7.63,7.63,0,0,0,.51,2.81,2.79,2.79,0,0,0,.85.95v1.35a2.45,2.45,0,0,1-1.69-1.12,5.89,5.89,0,0,1-.74-3,6.72,6.72,0,0,1,.74-3.2,2.62,2.62,0,0,1,1.69-1.29Zm-7.5,8.64v-1a1.21,1.21,0,0,0,.45.05,1,1,0,0,0,.56-.16,2.89,2.89,0,0,0,.57-.73v-3.65a6.16,6.16,0,0,0-.28-1.85,1.46,1.46,0,0,0-1.13-.67h-.17V288h.11c.23,0,.51.05.68.05a3.13,3.13,0,0,1,.79.62v-2.36a2.62,2.62,0,0,0-.17-1.12.71.71,0,0,0-.62-.33h-.23v-.34l2-1.06h.23v10.48a3.92,3.92,0,0,0,.17,1.23c.05.17.34.23.62.23l.11.11v.33l-2,1h-.11v-1.23a2.12,2.12,0,0,1-1,.84A1.26,1.26,0,0,1,361.65,296.69Zm0-8.69v.67a1.48,1.48,0,0,0-1.07.95,4.77,4.77,0,0,0-.51,2.41,5.64,5.64,0,0,0,.51,2.58,2.48,2.48,0,0,0,1.07,1.07v1h-.23a2.23,2.23,0,0,1-1.85-1.12,5.15,5.15,0,0,1-.74-3,6.1,6.1,0,0,1,.85-3.2A2.51,2.51,0,0,1,361.65,288Z" />
                    </g>
                </g>
                <circle class="cls-9" cx="557.68" cy="265.25" r="51.11" />
            </g>
            <text class="cls-10" transform="translate(311.57 553.81)">404</text>
            <text class="cls-11" transform="translate(158.3 641.4)">
                <tspan class="cls-12">P</tspan>
                <tspan x="41" y="0">ágina no encont</tspan>
                <tspan class="cls-13" x="507.36" y="0">r</tspan>
                <tspan x="528.27" y="0">ada</tspan>
            </text>
                <circle class="cls-6" cx="476.58" cy="841.39" r="41.03" transform="translate(-455.28 1099.67) rotate(-75.96)" />
                <path class="cls-3" d="M482.42,828.68l-16.64-.35a2.83,2.83,0,0,0-2.89,2.78l-.35,16.64a2.31,2.31,0,0,0,2.25,2.35h0a2.29,2.29,0,0,0,2.34-2.25l.24-11.64,16.83,17.54a2.3,2.3,0,0,0,3.25.06h0a2.3,2.3,0,0,0,.07-3.24L470.69,833l11.64.24a2.29,2.29,0,0,0,2.34-2.25h0A2.29,2.29,0,0,0,482.42,828.68Z" />
        </g>
        <text class="cls-14" transform="translate(177.42 679.26) scale(0.79 1)">La pá<tspan class="cls-15" x="46.56" y="0">g</tspan>
            <tspan x="58.17" y="0">ina que i</tspan>
            <tspan class="cls-16" x="132.59" y="0">n</tspan>
            <tspan class="cls-17" x="144.16" y="0">t</tspan>
            <tspan x="150.99" y="0">e</tspan>
            <tspan class="cls-16" x="161.51" y="0">n</tspan>
            <tspan x="173.08" y="0">tas </tspan>
            <tspan class="cls-18" x="202.92" y="0">c</tspan>
            <tspan x="212.2" y="0">onsultar no </tspan>
            <tspan class="cls-19" x="316.25" y="0">e</tspan>
            <tspan x="326.71" y="0">xis</tspan>
            <tspan class="cls-18" x="349.67" y="0">t</tspan>
            <tspan class="cls-20" x="356.49" y="0">e</tspan>
            <tspan x="366.76" y="0">, asegú</tspan>
            <tspan class="cls-21" x="427.83" y="0">r</tspan>
            <tspan class="cls-16" x="434.59" y="0">a</tspan>
            <tspan class="cls-17" x="444.63" y="0">t</tspan>
            <tspan x="451.45" y="0">e de haber esc</tspan>
            <tspan class="cls-22" x="577.05" y="0">r</tspan>
            <tspan x="584" y="0">i</tspan>
            <tspan class="cls-17" x="588.91" y="0">t</tspan>
            <tspan x="595.74" y="0">o bien la di</tspan>
            <tspan class="cls-23" x="691.5" y="0">r</tspan>
            <tspan x="698.15" y="0">e</tspan>
            <tspan class="cls-18" x="708.67" y="0">c</tspan>
            <tspan x="717.96" y="0">ción.</tspan>
            <tspan class="cls-24" x="33.92" y="25.2">T</tspan>
            <tspan x="42.87" y="25.2">e </tspan>
            <tspan class="cls-23" x="57.84" y="25.2">r</tspan>
            <tspan x="64.5" y="25.2">e</tspan>
            <tspan class="cls-18" x="75.02" y="25.2">c</tspan>
            <tspan x="84.3" y="25.2">omendamos </tspan>
            <tspan class="cls-23" x="199.3" y="25.2">r</tspan>
            <tspan class="cls-25" x="205.95" y="25.2">e</tspan>
            <tspan class="cls-15" x="216.48" y="25.2">g</tspan>
            <tspan class="cls-23" x="228.09" y="25.2">r</tspan>
            <tspan x="234.75" y="25.2">esar a la pá</tspan>
            <tspan class="cls-15" x="331.2" y="25.2">g</tspan>
            <tspan x="342.81" y="25.2">ina de inicio y </tspan>
            <tspan class="cls-15" x="466.9" y="25.2">c</tspan>
            <tspan class="cls-25" x="476.18" y="25.2">o</tspan>
            <tspan class="cls-16" x="487.71" y="25.2">n</tspan>
            <tspan x="499.28" y="25.2">tinuar </tspan>
            <tspan class="cls-18" x="555.81" y="25.2">c</tspan>
            <tspan x="565.09" y="25.2">on tu n</tspan>
            <tspan class="cls-26" x="627.35" y="25.2">a</tspan>
            <tspan class="cls-23" x="637.31" y="25.2">v</tspan>
            <tspan x="647.2" y="25.2">egación.</tspan>
            <tspan class="cls-27" x="721.43" y="25.2"> </tspan>
        </text>
        <text class="cls-14" transform="translate(420.5 909.66) scale(0.79 1)">
            <tspan class="cls-22">R</tspan>
            <tspan class="cls-25" x="11.38" y="0">e</tspan>
            <tspan class="cls-15" x="21.9" y="0">g</tspan>
            <tspan class="cls-23" x="33.52" y="0">r</tspan>
            <tspan x="40.17" y="0">esar al inicio</tspan>
        </text>
    </g>
</svg>